<!-- icon666.com - MILLIONS vector ICONS FREE -->
<svg id="Layer_3" viewBox="0 0 64 64"
	xmlns="http://www.w3.org/2000/svg" data-name="Layer 3">
	<path d="m18 20h1.643a12.9 12.9 0 0 0 .79 1.91l-1.161 1.161a1 1 0 0 0 0 1.414l4.243 4.243a1 1 0 0 0 1.414 0l1.161-1.161a12.9 12.9 0 0 0 1.91.79v1.643a1 1 0 0 0 1 1h6a1 1 0 0 0 1-1v-1.643a12.9 12.9 0 0 0 1.91-.79l1.161 1.161a1 1 0 0 0 1.414 0l4.243-4.243a1 1 0 0 0 0-1.414l-1.161-1.161a12.9 12.9 0 0 0 .79-1.91h1.643a1 1 0 0 0 1-1v-6a1 1 0 0 0 -1-1h-1.643a12.9 12.9 0 0 0 -.79-1.91l1.161-1.161a1 1 0 0 0 0-1.414l-4.243-4.243a1 1 0 0 0 -1.414 0l-1.161 1.161a12.9 12.9 0 0 0 -1.91-.79v-1.643a1 1 0 0 0 -1-1h-6a1 1 0 0 0 -1 1v1.643a12.9 12.9 0 0 0 -1.91.79l-1.161-1.161a1 1 0 0 0 -1.414 0l-4.243 4.243a1 1 0 0 0 0 1.414l1.161 1.161a12.9 12.9 0 0 0 -.79 1.91h-1.643a1 1 0 0 0 -1 1v6a1 1 0 0 0 1 1zm1-6h1.394a1 1 0 0 0 .968-.75 10.918 10.918 0 0 1 1.17-2.827 1 1 0 0 0 -.154-1.216l-.984-.985 2.828-2.828.985.984a1 1 0 0 0 1.216.154 10.918 10.918 0 0 1 2.827-1.17 1 1 0 0 0 .75-.968v-1.394h4v1.394a1 1 0 0 0 .75.968 10.918 10.918 0 0 1 2.827 1.17 1 1 0 0 0 1.216-.154l.985-.984 2.828 2.828-.984.985a1 1 0 0 0 -.154 1.216 10.918 10.918 0 0 1 1.17 2.827 1 1 0 0 0 .968.75h1.394v4h-1.394a1 1 0 0 0 -.968.75 10.918 10.918 0 0 1 -1.17 2.827 1 1 0 0 0 .154 1.216l.984.985-2.828 2.828-.985-.984a1 1 0 0 0 -1.216-.154 10.918 10.918 0 0 1 -2.827 1.17 1 1 0 0 0 -.75.968v1.394h-4v-1.394a1 1 0 0 0 -.75-.968 10.918 10.918 0 0 1 -2.827-1.17 1 1 0 0 0 -1.216.154l-.985.984-2.828-2.828.984-.985a1 1 0 0 0 .154-1.216 10.918 10.918 0 0 1 -1.17-2.827 1 1 0 0 0 -.968-.75h-1.394z"></path>
	<path d="m32 24a8 8 0 1 0 -8-8 8.009 8.009 0 0 0 8 8zm0-14a6 6 0 1 1 -6 6 6.006 6.006 0 0 1 6-6z"></path>
	<path d="m18 45h-14a3 3 0 0 0 -3 3v4a2.981 2.981 0 0 0 .78 2 2.981 2.981 0 0 0 -.78 2v4a3 3 0 0 0 3 3h14a3 3 0 0 0 3-3v-4a2.981 2.981 0 0 0 -.78-2 2.981 2.981 0 0 0 .78-2v-4a3 3 0 0 0 -3-3zm-15 3a1 1 0 0 1 1-1h14a1 1 0 0 1 1 1v4a1 1 0 0 1 -1 1h-14a1 1 0 0 1 -1-1zm16 12a1 1 0 0 1 -1 1h-14a1 1 0 0 1 -1-1v-4a1 1 0 0 1 1-1h14a1 1 0 0 1 1 1z"></path>
	<path d="m5 49h2v2h-2z"></path>
	<path d="m9 49h2v2h-2z"></path>
	<path d="m5 57h2v2h-2z"></path>
	<path d="m9 57h2v2h-2z"></path>
	<path d="m15 49h2v2h-2z"></path>
	<path d="m15 57h2v2h-2z"></path>
	<path d="m63 48a3 3 0 0 0 -3-3h-14a3 3 0 0 0 -3 3v4a2.981 2.981 0 0 0 .78 2 2.981 2.981 0 0 0 -.78 2v4a3 3 0 0 0 3 3h14a3 3 0 0 0 3-3v-4a2.981 2.981 0 0 0 -.78-2 2.981 2.981 0 0 0 .78-2zm-18 0a1 1 0 0 1 1-1h14a1 1 0 0 1 1 1v4a1 1 0 0 1 -1 1h-14a1 1 0 0 1 -1-1zm16 12a1 1 0 0 1 -1 1h-14a1 1 0 0 1 -1-1v-4a1 1 0 0 1 1-1h14a1 1 0 0 1 1 1z"></path>
	<path d="m47 49h2v2h-2z"></path>
	<path d="m51 49h2v2h-2z"></path>
	<path d="m47 57h2v2h-2z"></path>
	<path d="m51 57h2v2h-2z"></path>
	<path d="m57 49h2v2h-2z"></path>
	<path d="m57 57h2v2h-2z"></path>
	<path d="m38 45h-12a1 1 0 0 0 -1 1v16a1 1 0 0 0 1 1h12a1 1 0 0 0 1-1v-16a1 1 0 0 0 -1-1zm-1 16h-10v-14h10z"></path>
	<path d="m29 49h6v2h-6z"></path>
	<path d="m29 53h6v2h-6z"></path>
	<path d="m29 57h6v2h-6z"></path>
	<path d="m12 39h19v4h2v-4h19v4h2v-5a1 1 0 0 0 -1-1h-20v-4h-2v4h-20a1 1 0 0 0 -1 1v5h2z"></path>
</svg>