<svg width="60" height="60" viewBox="0 0 60 60" fill="none" xmlns="http://www.w3.org/2000/svg">
<path d="M20.0549 35.964L35.9649 20.0542C36.4924 19.5267 37.2078 19.2304 37.9537 19.2304C38.6996 19.2304 39.415 19.5267 39.9424 20.0542C40.4699 20.5816 40.7662 21.297 40.7662 22.0429C40.7662 22.7889 40.4699 23.5042 39.9424 24.0317L24.0324 39.9415C23.7713 40.203 23.4612 40.4104 23.1199 40.552C22.7786 40.6936 22.4128 40.7665 22.0432 40.7667C21.6737 40.7668 21.3078 40.6941 20.9664 40.5528C20.625 40.4114 20.3148 40.2042 20.0535 39.9429C19.7922 39.6816 19.585 39.3714 19.4436 39.03C19.3023 38.6886 19.2296 38.3227 19.2297 37.9532C19.2299 37.5836 19.3028 37.2178 19.4444 36.8765C19.586 36.5352 19.7934 36.2251 20.0549 35.964V35.964ZM31.987 39.9433L25.3579 46.5724C23.7746 48.1505 21.6299 49.0358 19.3945 49.034C17.1592 49.0322 15.0159 48.1434 13.4352 46.5628C11.8545 44.9822 10.9657 42.8389 10.9639 40.6035C10.962 38.3681 11.8473 36.2234 13.4253 34.6401L20.0544 28.011C20.5813 27.4835 20.8771 26.7683 20.8768 26.0227C20.8765 25.2771 20.5802 24.5621 20.053 24.0349C19.5258 23.5077 18.8109 23.2114 18.0653 23.2112C17.3197 23.2109 16.6045 23.5067 16.0769 24.0335L9.44781 30.6626C6.81318 33.3004 5.33383 36.8765 5.33496 40.6046C5.33609 44.3328 6.81761 47.9079 9.45384 50.5441C12.0901 53.1803 15.6652 54.6618 19.3934 54.6629C23.1216 54.664 26.6976 53.1846 29.3354 50.5499L35.9645 43.9208C36.4913 43.3933 36.7871 42.6781 36.7868 41.9325C36.7866 41.1869 36.4903 40.4719 35.9631 39.9447C35.4359 39.4175 34.7209 39.1212 33.9753 39.121C33.2297 39.1207 32.5145 39.4165 31.987 39.9433ZM50.5497 9.44826C47.9104 6.81487 44.3343 5.33594 40.606 5.33594C36.8776 5.33594 33.3015 6.81487 30.6622 9.44826L24.0331 16.0774C23.5056 16.6048 23.2093 17.3202 23.2093 18.0661C23.2093 18.812 23.5056 19.5274 24.0331 20.0549C24.5605 20.5823 25.2759 20.8786 26.0218 20.8786C26.7678 20.8786 27.4831 20.5823 28.0106 20.0549L34.6397 13.4258C36.2229 11.8475 38.3677 10.9621 40.6031 10.9638C42.8386 10.9656 44.982 11.8544 46.5627 13.435C48.1434 15.0157 49.0323 17.1591 49.0341 19.3946C49.0358 21.63 48.1504 23.7749 46.5722 25.3581L39.9431 31.9872C39.4163 32.5147 39.1205 33.2299 39.1207 33.9755C39.121 34.7211 39.4173 35.4361 39.9445 35.9633C40.4717 36.4905 41.1867 36.7868 41.9323 36.7871C42.6779 36.7873 43.3931 36.4915 43.9206 35.9647L50.5497 29.3356C53.1869 26.6983 54.6685 23.1215 54.6685 19.3919C54.6685 15.6623 53.1869 12.0855 50.5497 9.44825V9.44826Z" fill="black"/>
</svg>
