<svg width="60" height="60" viewBox="0 0 60 60" fill="none" xmlns="http://www.w3.org/2000/svg">
<path d="M34.8151 41.8473L43.7792 27.4333C43.8085 27.3867 43.833 27.3377 43.8522 27.2869C45.4001 24.7626 46.2174 21.8789 46.2174 18.9349C46.2174 10.1029 39.032 2.91748 30.1999 2.91748C21.3679 2.91748 14.1819 10.1029 14.1819 18.9349C14.1819 21.8795 15.0004 24.7644 16.5495 27.2904C16.5675 27.3347 16.5884 27.3777 16.6135 27.4196L25.256 41.8831C18.5471 42.8314 14.1353 45.59 14.1353 48.9364C14.1353 53.0828 21.1814 56.3299 30.176 56.3299C39.1707 56.3299 46.2168 53.0822 46.2168 48.9364C46.2174 45.5745 41.5999 42.7543 34.8151 41.8473ZM18.1596 26.4827C16.7307 24.2083 15.9756 21.5985 15.9756 18.9349C15.9756 11.0918 22.3562 4.71115 30.1999 4.71115C38.0431 4.71115 44.4237 11.0918 44.4237 18.9349C44.4237 21.5997 43.6686 24.2095 42.2402 26.4827C42.2104 26.5305 42.1858 26.5801 42.1661 26.6316L32.6955 41.858C32.5532 42.0763 32.5251 42.1259 32.3512 42.4117L29.9596 46.2573L18.2398 26.6441C18.2188 26.5885 18.1919 26.5341 18.1596 26.4827ZM30.1766 54.5363C21.7805 54.5363 15.9295 51.5845 15.9295 48.9364C15.9295 46.5329 20.336 44.2681 26.2628 43.5668L29.1746 48.4402C29.3354 48.7086 29.6236 48.8743 29.9363 48.8766C29.9387 48.8766 29.9417 48.8766 29.944 48.8766C30.2538 48.8766 30.5419 48.7164 30.7058 48.4533L33.767 43.5315C39.7883 44.1838 44.4231 46.506 44.4231 48.9364C44.4237 51.5851 38.5728 54.5363 30.1766 54.5363Z" fill="black"/>
<path d="M36.0006 18.9349C36.0006 15.7236 33.3878 13.1108 30.1766 13.1108C26.9653 13.1108 24.3525 15.7236 24.3525 18.9349C24.3525 22.1461 26.9653 24.7589 30.1766 24.7589C33.3878 24.7589 36.0006 22.1461 36.0006 18.9349ZM26.1462 18.9349C26.1462 16.7125 27.9542 14.9045 30.1766 14.9045C32.3989 14.9045 34.207 16.7125 34.207 18.9349C34.207 21.1572 32.3995 22.9653 30.1766 22.9653C27.9536 22.9653 26.1462 21.1572 26.1462 18.9349Z" fill="black"/>
</svg>
