<svg width="60" height="60" viewBox="0 0 60 60" fill="none" xmlns="http://www.w3.org/2000/svg">
<g clip-path="url(#clip0_70_200)">
<path d="M54.7171 14.9208C54.6066 14.7727 54.4681 14.6478 54.3093 14.5532C54.1506 14.4587 53.9748 14.3964 53.792 14.3698C53.6091 14.3433 53.4229 14.353 53.2438 14.3985C53.0647 14.444 52.8964 14.5243 52.7483 14.6348L30.0655 31.5661C29.9844 31.6269 29.8857 31.6598 29.7843 31.6598C29.6829 31.6598 29.5842 31.6269 29.503 31.5661L7.26553 14.5598C7.11871 14.4478 6.95127 14.3658 6.77276 14.3184C6.59425 14.2711 6.40816 14.2594 6.22513 14.284C6.0421 14.3086 5.8657 14.369 5.70601 14.4618C5.54632 14.5545 5.40647 14.6778 5.29443 14.8247C5.1824 14.9715 5.10038 15.1389 5.05306 15.3174C5.00573 15.4959 4.99404 15.682 5.01863 15.8651C5.04322 16.0481 5.10362 16.2245 5.19639 16.3842C5.28915 16.5439 5.41246 16.6837 5.55928 16.7958L23.0437 30.1692L5.75146 43.2004C5.6025 43.3116 5.47687 43.4509 5.38176 43.6106C5.28665 43.7702 5.22393 43.9471 5.19716 44.131C5.17039 44.3149 5.1801 44.5023 5.22575 44.6824C5.27139 44.8625 5.35207 45.0319 5.46318 45.1809C5.57429 45.3299 5.71366 45.4555 5.87332 45.5506C6.03298 45.6457 6.20981 45.7085 6.39371 45.7352C6.57762 45.762 6.76499 45.7523 6.94514 45.7066C7.12529 45.661 7.29468 45.5803 7.44365 45.4692L25.364 31.9411L27.7921 33.8161C28.3583 34.2494 29.0502 34.4866 29.7632 34.4917C30.4761 34.4968 31.1714 34.2695 31.7437 33.8442L34.2937 31.9411L52.4249 45.4692C52.5729 45.5797 52.7413 45.6599 52.9204 45.7054C53.0994 45.7508 53.2857 45.7605 53.4685 45.734C53.6513 45.7074 53.8271 45.6451 53.9858 45.5506C54.1446 45.4561 54.2832 45.3313 54.3937 45.1833C54.5042 45.0352 54.5844 44.8668 54.6298 44.6878C54.6753 44.5087 54.685 44.3225 54.6584 44.1397C54.6319 43.9568 54.5696 43.781 54.4751 43.6223C54.3806 43.4636 54.2558 43.325 54.1077 43.2145L36.6421 30.1645L54.4312 16.8754C54.7262 16.6526 54.9216 16.3226 54.9752 15.9568C55.0287 15.5909 54.936 15.2187 54.7171 14.9208Z" fill="black"/>
<path d="M52.9688 8.90625H7.03125C5.16645 8.90625 3.37802 9.64704 2.05941 10.9657C0.74079 12.2843 0 14.0727 0 15.9375L0 44.0625C0 45.9273 0.74079 47.7157 2.05941 49.0343C3.37802 50.353 5.16645 51.0938 7.03125 51.0938H52.9688C54.8336 51.0938 56.622 50.353 57.9406 49.0343C59.2592 47.7157 60 45.9273 60 44.0625V15.9375C60 14.0727 59.2592 12.2843 57.9406 10.9657C56.622 9.64704 54.8336 8.90625 52.9688 8.90625ZM57.1875 44.0625C57.1875 45.1814 56.743 46.2544 55.9519 47.0456C55.1607 47.8368 54.0876 48.2812 52.9688 48.2812H7.03125C5.91237 48.2812 4.83931 47.8368 4.04814 47.0456C3.25697 46.2544 2.8125 45.1814 2.8125 44.0625V15.9375C2.8125 14.8186 3.25697 13.7456 4.04814 12.9544C4.83931 12.1632 5.91237 11.7188 7.03125 11.7188H52.9688C54.0876 11.7188 55.1607 12.1632 55.9519 12.9544C56.743 13.7456 57.1875 14.8186 57.1875 15.9375V44.0625Z" fill="black"/>
</g>
<defs>
<clipPath id="clip0_70_200">
<rect width="60" height="60" fill="white"/>
</clipPath>
</defs>
</svg>
