<svg width="60" height="60" viewBox="0 0 60 60" fill="none" xmlns="http://www.w3.org/2000/svg">
<path d="M40.8668 52.7415C39.0336 52.7279 37.2085 52.4978 35.4293 52.056C29.2851 50.5736 22.9582 46.813 17.6168 41.4669C12.2754 36.1208 8.51015 29.7927 7.02772 23.6544C5.46679 17.1974 6.58007 11.6732 10.159 8.09426L11.1809 7.07239C12.108 6.1471 13.3643 5.62744 14.6742 5.62744C15.9841 5.62744 17.2404 6.1471 18.1676 7.07239L24.0398 12.9435C24.9657 13.8703 25.4858 15.1268 25.4858 16.4368C25.4858 17.7469 24.9657 19.0034 24.0398 19.9302L20.5711 23.3978C22.234 26.3158 24.4957 29.2361 27.1687 31.9091C29.8418 34.5822 32.7644 36.845 35.6812 38.5079L39.1488 35.0392C39.6075 34.5803 40.1521 34.2163 40.7515 33.968C41.3509 33.7196 41.9934 33.5918 42.6422 33.5918C43.291 33.5918 43.9334 33.7196 44.5328 33.968C45.1322 34.2163 45.6768 34.5803 46.1355 35.0392L52.0066 40.9103C52.9327 41.8368 53.4529 43.0931 53.4529 44.4031C53.4529 45.713 52.9327 46.9693 52.0066 47.8958L50.9836 48.9177C48.4605 51.4454 44.9683 52.7415 40.8668 52.7415ZM14.6742 9.14075C14.4871 9.13982 14.3017 9.17624 14.1288 9.24788C13.956 9.31951 13.7992 9.42492 13.6676 9.55794L12.6445 10.5798C9.96444 13.2599 9.18163 17.6111 10.4402 22.8247C11.7726 28.3478 15.2027 34.0865 20.0976 38.9802C24.9926 43.874 30.7301 47.3005 36.2543 48.6376C41.4691 49.8962 45.818 49.1134 48.498 46.4333L49.5199 45.4115C49.7869 45.1442 49.9369 44.782 49.9369 44.4042C49.9369 44.0265 49.7869 43.6642 49.5199 43.397L43.65 37.5259C43.3828 37.2589 43.0205 37.1089 42.6428 37.1089C42.265 37.1089 41.9027 37.2589 41.6355 37.5259L37.2398 41.9216C36.9761 42.1855 36.6352 42.3586 36.2665 42.4159C35.8978 42.4732 35.5205 42.4118 35.1891 42.2404C31.5855 40.3771 27.9527 37.6642 24.6832 34.3947C21.4137 31.1251 18.7066 27.4947 16.8387 23.8911C16.6671 23.5598 16.6054 23.1826 16.6625 22.8139C16.7196 22.4452 16.8925 22.1043 17.1562 21.8404L21.5531 17.4447C21.8201 17.1774 21.9701 16.8152 21.9701 16.4374C21.9701 16.0597 21.8201 15.6974 21.5531 15.4302L15.682 9.55794C15.55 9.42515 15.3929 9.3199 15.2199 9.24829C15.0469 9.17667 14.8614 9.14012 14.6742 9.14075Z" fill="black"/>
<path d="M42.7441 31.6091C42.2779 31.6091 41.8308 31.4239 41.5012 31.0942C41.1715 30.7646 40.9863 30.3175 40.9863 29.8513C40.9829 26.7675 39.7565 23.811 37.576 21.6304C35.3956 19.4497 32.4392 18.223 29.3555 18.2192C28.8893 18.2192 28.4422 18.034 28.1125 17.7044C27.7829 17.3747 27.5977 16.9276 27.5977 16.4614C27.5977 15.9952 27.7829 15.5481 28.1125 15.2185C28.4422 14.8888 28.8893 14.7036 29.3555 14.7036C37.7074 14.7036 44.502 21.5005 44.502 29.8513C44.502 30.3175 44.3168 30.7646 43.9871 31.0942C43.6574 31.4239 43.2103 31.6091 42.7441 31.6091Z" fill="black"/>
<path d="M50.1738 31.6091C49.7076 31.6091 49.2605 31.4239 48.9309 31.0942C48.6012 30.7646 48.416 30.3175 48.416 29.8513C48.416 19.3407 39.8613 10.7896 29.3555 10.7896C28.8893 10.7896 28.4422 10.6044 28.1125 10.2747C27.7829 9.94505 27.5977 9.49794 27.5977 9.03174C27.5977 8.56554 27.7829 8.11843 28.1125 7.78878C28.4422 7.45912 28.8893 7.27393 29.3555 7.27393C41.8043 7.27393 51.9316 17.4024 51.9316 29.8513C51.9316 30.3175 51.7464 30.7646 51.4168 31.0942C51.0871 31.4239 50.64 31.6091 50.1738 31.6091Z" fill="black"/>
</svg>
