<svg width="80" height="80" viewBox="0 0 80 80" fill="none" xmlns="http://www.w3.org/2000/svg">
<path d="M55.2875 6.37499C54.04 6.33304 52.7342 6.55054 51.425 6.97499C48.8065 7.82389 46.0627 9.4782 43.2468 11.7687C42.1433 12.6664 41.0298 13.6925 39.9125 14.7812C38.8198 13.7202 37.7291 12.7185 36.65 11.8406C33.8364 9.55192 31.1 7.9001 28.4875 7.05311C25.875 6.20613 23.2755 6.17988 21.1406 7.41249C19.0056 8.64509 17.7289 10.9078 17.1562 13.5937C16.5835 16.2797 16.6434 19.4784 17.2187 23.0594C17.4185 24.3032 17.7066 25.6081 18.0312 26.9375C16.8113 27.3072 15.6266 27.6959 14.5281 28.125C11.2127 29.4199 8.46947 30.969 6.47183 32.8125C4.47419 34.6559 3.18433 36.8933 3.18433 39.35C3.18433 41.8067 4.47419 44.0409 6.47183 45.8844C8.46947 47.7278 11.2127 49.2801 14.5281 50.575C15.7028 51.0338 16.9745 51.4469 18.2875 51.8375C17.8152 53.602 17.4326 55.3143 17.1718 56.9375C16.5961 60.5214 16.5353 63.7204 17.1093 66.4125C17.6834 69.1046 18.9607 71.38 21.1062 72.6187C23.2517 73.8574 25.8628 73.827 28.4812 72.9781C31.0996 72.1292 33.8404 70.478 36.6562 68.1875C37.7496 67.2981 38.8556 66.2835 39.9625 65.2062C41.0746 66.2894 42.1861 67.3098 43.2843 68.2031C46.0979 70.4918 48.8375 72.1436 51.45 72.9906C54.0625 73.8376 56.6588 73.8638 58.7937 72.6312C60.9286 71.3986 62.2053 69.136 62.7781 66.45C63.3508 63.764 63.2877 60.5653 62.7125 56.9844C62.451 55.3568 62.0681 53.642 61.5937 51.8719C62.95 51.4718 64.2619 51.0475 65.4718 50.575C68.7872 49.2801 71.5304 47.7278 73.5281 45.8844C75.5257 44.0409 76.8156 41.8067 76.8156 39.35C76.8156 36.8933 75.5257 34.6559 73.5281 32.8125C71.5304 30.969 68.7872 29.4199 65.4718 28.125C64.3575 27.6898 63.1547 27.296 61.9156 26.9219C62.2428 25.5843 62.5333 24.2701 62.7343 23.0187C63.3101 19.4349 63.3709 16.2327 62.7968 13.5406C62.2228 10.8485 60.9423 8.57619 58.7968 7.33749C57.7241 6.71814 56.5349 6.41693 55.2875 6.37499ZM55.1406 9.63124C55.9234 9.65264 56.5912 9.83893 57.1625 10.1687C58.3049 10.8284 59.1494 12.1121 59.6 14.225C60.0505 16.3378 60.0349 19.1925 59.5031 22.5031C59.321 23.6366 59.0566 24.8379 58.7562 26.0687C55.4843 25.2813 51.8991 24.6967 48.0781 24.3531C46.1585 21.6935 44.1855 19.2742 42.1968 17.125C43.2482 16.0986 44.2929 15.1387 45.3125 14.3094C47.9136 12.1935 50.3762 10.7537 52.4312 10.0875C53.4587 9.75436 54.3578 9.60983 55.1406 9.63124ZM24.7781 9.64061C25.5654 9.61863 26.4663 9.76277 27.4968 10.0969C29.5578 10.765 32.0247 12.2041 34.6281 14.3219C35.627 15.1344 36.6487 16.0734 37.6781 17.075C35.6751 19.2412 33.6882 21.6859 31.7562 24.3687C27.9488 24.7186 24.3764 25.3088 21.1187 26.1C20.8202 24.875 20.5594 23.6785 20.3781 22.55C19.8458 19.2365 19.8325 16.3783 20.2843 14.2594C20.7362 12.1404 21.5875 10.8501 22.7406 10.1844C23.3171 9.85151 23.9907 9.66259 24.7781 9.64061ZM39.9625 19.4281C41.2657 20.8463 42.5697 22.3989 43.8625 24.0687C42.592 24.0158 41.306 23.9844 40 23.9844C38.6679 23.9844 37.3574 24.0168 36.0625 24.0719C37.3557 22.4005 38.6588 20.8476 39.9625 19.4281ZM40 27.2156C42.1758 27.2156 44.2965 27.305 46.3593 27.4562C47.7787 29.4949 49.1658 31.6577 50.4875 33.9469C51.6488 35.9583 52.6997 37.9667 53.6562 39.95C52.6896 41.9596 51.621 43.9951 50.4437 46.0344C49.4073 47.8294 48.3251 49.5343 47.225 51.1781C44.8949 51.3729 42.4804 51.4812 40 51.4812C37.4598 51.4812 34.9911 51.3664 32.6093 51.1625C31.5275 49.5423 30.4635 47.8601 29.4437 46.0937C28.269 44.0592 27.2057 42.0305 26.2406 40.025C27.2097 38.0081 28.2779 35.9651 29.4593 33.9187C30.7741 31.6416 32.1571 29.4913 33.5687 27.4625C35.6537 27.3079 37.7991 27.2156 40 27.2156ZM50.4812 27.8562C53.1176 28.1853 55.593 28.6425 57.8968 29.1906C57.213 31.4324 56.3706 33.7741 55.35 36.1906C54.6873 34.9131 54.0009 33.6313 53.2593 32.3469C52.3611 30.7911 51.4272 29.3055 50.4812 27.8562ZM29.35 27.8812C28.4234 29.3041 27.5117 30.7593 26.6312 32.2844C25.8801 33.5853 25.1795 34.8844 24.5093 36.1781C23.4975 33.7761 22.6602 31.4478 21.9812 29.2187C24.2688 28.6694 26.7308 28.2141 29.35 27.8812ZM61.0625 30.0406C62.1967 30.3838 63.2921 30.7419 64.2968 31.1344C67.3531 32.3281 69.7706 33.7416 71.3375 35.1875C72.9043 36.6334 73.5843 38.0123 73.5843 39.35C73.5843 40.6877 72.9043 42.0666 71.3375 43.5125C69.7706 44.9584 67.3531 46.3719 64.2968 47.5656C63.1803 48.0017 61.9535 48.3972 60.6781 48.7719C59.7683 45.9578 58.607 43.022 57.225 40.025C58.814 36.5841 60.0977 33.2292 61.0625 30.0406ZM18.8843 30.0562C19.838 33.2129 21.1053 36.5347 22.6718 39.9406C21.2807 42.9551 20.1137 45.9076 19.2 48.7375C17.9695 48.3727 16.7843 47.9879 15.7031 47.5656C12.6468 46.3719 10.2293 44.9584 8.66245 43.5125C7.09559 42.0666 6.41558 40.6877 6.41558 39.35C6.41558 38.0123 7.09559 36.6334 8.66245 35.1875C10.2293 33.7416 12.6468 32.3281 15.7031 31.1344C16.6924 30.748 17.7694 30.3949 18.8843 30.0562ZM40 32C35.6006 32 32 35.6007 32 40C32 44.3993 35.6006 48 40 48C44.3993 48 48 44.3993 48 40C48 35.6007 44.3993 32 40 32ZM40 35.2C42.6699 35.2 44.8 37.3301 44.8 40C44.8 42.6699 42.6699 44.8 40 44.8C37.33 44.8 35.2 42.6699 35.2 40C35.2 37.3301 37.33 35.2 40 35.2ZM55.3906 43.7812C56.2297 45.7672 56.9591 47.7105 57.5718 49.5844C55.6476 50.0305 53.5988 50.4065 51.4437 50.7031C52.0641 49.7132 52.6767 48.7049 53.275 47.6687C54.0248 46.3699 54.7213 45.0728 55.3906 43.7812ZM24.5468 43.7844C25.2196 45.0839 25.9204 46.3868 26.675 47.6937C27.2657 48.7169 27.8688 49.7158 28.4812 50.6937C26.3325 50.3958 24.2899 50.0186 22.3718 49.5719C22.9818 47.7037 23.7115 45.7645 24.5468 43.7844ZM21.45 52.6781C24.3457 53.3641 27.4843 53.891 30.8125 54.2344C33.0346 57.4484 35.3482 60.3349 37.6781 62.8594C36.6365 63.875 35.6041 64.8281 34.5937 65.65C31.9926 67.7659 29.5269 69.2025 27.4718 69.8687C25.4168 70.535 23.8831 70.4471 22.7406 69.7875C21.5981 69.1279 20.7567 67.8441 20.3062 65.7312C19.8557 63.6184 19.8681 60.7668 20.4 57.4562C20.6412 55.9544 21.0018 54.3462 21.45 52.6781ZM58.4968 52.6906C58.9484 54.368 59.3105 55.9837 59.5531 57.4937C60.0854 60.8072 60.0987 63.6623 59.6468 65.7812C59.195 67.9002 58.3467 69.1937 57.1937 69.8594C56.0407 70.5251 54.4953 70.615 52.4343 69.9469C50.3734 69.2787 47.9065 67.8365 45.3031 65.7187C44.2855 64.891 43.2459 63.9332 42.1968 62.9094C44.5418 60.3753 46.8727 57.4732 49.1093 54.2406C52.4459 53.8996 55.5932 53.3758 58.4968 52.6906ZM34.9875 54.5625C36.6303 54.652 38.2947 54.7125 40 54.7125C41.6488 54.7125 43.2593 54.6556 44.85 54.5719C43.2239 56.7657 41.5664 58.7602 39.9156 60.5562C38.2658 58.7564 36.6114 56.7583 34.9875 54.5625Z" fill="white"/>
</svg>
